Chivo-Light Italic.ufo
<glyph name="exclam" format="1">
  <advance width="269"/>
  <unicode hex="0021"/>
  <outline>
    <contour>
      <point x="43" y="0" type="line"/>
      <point x="108" y="0" type="line"/>
      <point x="118" y="69" type="line"/>
      <point x="53" y="69" type="line"/>
    </contour>
    <contour>
      <point x="75" y="141" type="line"/>
      <point x="116" y="141" type="line"/>
      <point x="148" y="339"/>
      <point x="205" y="686"/>
      <point x="205" y="686" type="curve" smooth="yes"/>
      <point x="141" y="686" type="line"/>
    </contour>
  </outline>
</glyph>
<glyph name="numbersign" format="1">
  <advance width="644"/>
  <unicode hex="0023"/>
  <outline>
    <contour>
      <point x="623" y="420" type="line"/>
      <point x="631" y="478" type="line"/>
      <point x="518" y="478" type="line"/>
      <point x="598" y="696" type="line"/>
      <point x="539" y="696" type="line"/>
      <point x="460" y="478" type="line"/>
      <point x="294" y="478" type="line"/>
      <point x="374" y="696" type="line"/>
      <point x="315" y="696" type="line"/>
      <point x="236" y="478" type="line"/>
      <point x="93" y="478" type="line"/>
      <point x="85" y="420" type="line"/>
      <point x="215" y="420" type="line"/>
      <point x="151" y="246" type="line"/>
      <point x="22" y="246" type="line"/>
      <point x="14" y="188" type="line"/>
      <point x="130" y="188" type="line"/>
      <point x="62" y="0" type="line"/>
      <point x="120" y="0" type="line"/>
      <point x="188" y="188" type="line"/>
      <point x="354" y="188" type="line"/>
      <point x="286" y="0" type="line"/>
      <point x="344" y="0" type="line"/>
      <point x="412" y="188" type="line"/>
      <point x="551" y="188" type="line"/>
      <point x="559" y="246" type="line"/>
      <point x="433" y="246" type="line"/>
      <point x="497" y="420" type="line"/>
    </contour>
    <contour>
      <point x="273" y="420" type="line"/>
      <point x="439" y="420" type="line"/>
      <point x="375" y="246" type="line"/>
      <point x="209" y="246" type="line"/>
    </contour>
  </outline>
</glyph>
<glyph name="asterisk" format="1">
  <advance width="469"/>
  <unicode hex="002A"/>
  <outline>
    <contour>
      <point x="452" y="519" type="line"/>
      <point x="443" y="578" type="line"/>
      <point x="270" y="510" type="line"/>
      <point x="312" y="686" type="line"/>
      <point x="250" y="686" type="line"/>
      <point x="238" y="512" type="line"/>
      <point x="87" y="582" type="line"/>
      <point x="59" y="524" type="line"/>
      <point x="223" y="482" type="line"/>
      <point x="89" y="350" type="line"/>
      <point x="134" y="315" type="line"/>
      <point x="244" y="462" type="line"/>
      <point x="315" y="311" type="line"/>
      <point x="369" y="347" type="line"/>
      <point x="275" y="480" type="line"/>
    </contour>
  </outline>
</glyph>
<glyph name="plus" format="1">
  <advance width="615"/>
  <unicode hex="002B"/>
  <outline>
    <contour>
      <point x="366" y="511" type="line"/>
      <point x="308" y="511" type="line"/>
      <point x="277" y="284" type="line"/>
      <point x="50" y="284" type="line"/>
      <point x="41" y="226" type="line"/>
      <point x="268" y="226" type="line"/>
      <point x="237" y="0" type="line"/>
      <point x="295" y="0" type="line"/>
      <point x="326" y="226" type="line"/>
      <point x="553" y="226" type="line"/>
      <point x="562" y="284" type="line"/>
      <point x="335" y="284" type="line"/>
    </contour>
  </outline>
</glyph>
<glyph name="comma" format="1">
  <advance width="237"/>
  <unicode hex="002C"/>
  <outline>
    <contour>
      <point x="58" y="-101" type="line"/>
      <point x="103" y="11" type="line"/>
      <point x="111" y="69" type="line"/>
      <point x="46" y="69" type="line"/>
      <point x="37" y="0" type="line"/>
      <point x="61" y="0" type="line"/>
      <point x="61" y="0"/>
      <point x="25" y="-101"/>
      <point x="24" y="-101" type="curve"/>
    </contour>
  </outline>
</glyph>
<glyph name="one" format="1">
  <advance width="615"/>
  <unicode hex="0031"/>
  <outline>
    <contour>
      <point x="502" y="0" type="line"/>
      <point x="508" y="48" type="line"/>
      <point x="313" y="48" type="line"/>
      <point x="404" y="696" type="line"/>
      <point x="381" y="696" type="line"/>
      <point x="284" y="667"/>
      <point x="205" y="660"/>
      <point x="149" y="653" type="curve"/>
      <point x="145" y="619" type="line"/>
      <point x="340" y="619" type="line"/>
      <point x="259" y="48" type="line"/>
      <point x="64" y="48" type="line"/>
      <point x="58" y="0" type="line"/>
    </contour>
  </outline>
</glyph>
<glyph name="five" format="1">
  <advance width="615"/>
  <unicode hex="0035"/>
  <outline>
    <contour>
      <point x="74" y="211" type="line"/>
      <point x="72" y="199"/>
      <point x="71" y="187"/>
      <point x="71" y="175" type="curve" smooth="yes"/>
      <point x="71" y="70"/>
      <point x="143" y="-10"/>
      <point x="272" y="-10" type="curve" smooth="yes"/>
      <point x="425" y="-10"/>
      <point x="519" y="117"/>
      <point x="519" y="255" type="curve" smooth="yes"/>
      <point x="519" y="367"/>
      <point x="447" y="441"/>
      <point x="334" y="441" type="curve" smooth="yes"/>
      <point x="281" y="441"/>
      <point x="225" y="421"/>
      <point x="178" y="382" type="curve"/>
      <point x="232" y="632" type="line"/>
      <point x="545" y="632" type="line"/>
      <point x="552" y="686" type="line"/>
      <point x="189" y="686" type="line"/>
      <point x="109" y="310" type="line"/>
      <point x="156" y="303" type="line"/>
      <point x="192" y="356"/>
      <point x="257" y="392"/>
      <point x="320" y="392" type="curve" smooth="yes"/>
      <point x="403" y="392"/>
      <point x="464" y="329"/>
      <point x="464" y="242" type="curve" smooth="yes"/>
      <point x="464" y="136"/>
      <point x="386" y="38"/>
      <point x="278" y="38" type="curve" smooth="yes"/>
      <point x="181" y="38"/>
      <point x="126" y="100"/>
      <point x="126" y="181" type="curve" smooth="yes"/>
      <point x="126" y="191"/>
      <point x="126" y="201"/>
      <point x="128" y="211" type="curve"/>
    </contour>
  </outline>
</glyph>
<glyph name="six" format="1">
  <advance width="615"/>
  <unicode hex="0036"/>
  <outline>
    <contour>
      <point x="177" y="481" type="line" smooth="yes"/>
      <point x="191" y="577"/>
      <point x="266" y="648"/>
      <point x="363" y="648" type="curve" smooth="yes"/>
      <point x="450" y="648"/>
      <point x="503" y="590"/>
      <point x="503" y="508" type="curve" smooth="yes"/>
      <point x="503" y="499"/>
      <point x="502" y="490"/>
      <point x="500" y="475" type="curve"/>
      <point x="552" y="475" type="line"/>
      <point x="554" y="489"/>
      <point x="555" y="502"/>
      <point x="555" y="515" type="curve" smooth="yes"/>
      <point x="555" y="626"/>
      <point x="484" y="696"/>
      <point x="370" y="696" type="curve" smooth="yes"/>
      <point x="243" y="696"/>
      <point x="141" y="609"/>
      <point x="122" y="475" type="curve" smooth="yes"/>
      <point x="85" y="211" type="line" smooth="yes"/>
      <point x="83" y="198"/>
      <point x="82" y="185"/>
      <point x="82" y="173" type="curve" smooth="yes"/>
      <point x="82" y="61"/>
      <point x="160" y="-10"/>
      <point x="275" y="-10" type="curve" smooth="yes"/>
      <point x="415" y="-10"/>
      <point x="529" y="92"/>
      <point x="529" y="246" type="curve" smooth="yes"/>
      <point x="529" y="354"/>
      <point x="454" y="429"/>
      <point x="345" y="429" type="curve" smooth="yes"/>
      <point x="275" y="429"/>
      <point x="203" y="396"/>
      <point x="157" y="341" type="curve"/>
    </contour>
    <contour>
      <point x="417" y="381"/>
      <point x="475" y="323"/>
      <point x="475" y="241" type="curve" smooth="yes"/>
      <point x="475" y="125"/>
      <point x="389" y="38"/>
      <point x="282" y="38" type="curve" smooth="yes"/>
      <point x="195" y="38"/>
      <point x="136" y="97"/>
      <point x="136" y="180" type="curve" smooth="yes"/>
      <point x="136" y="295"/>
      <point x="225" y="381"/>
      <point x="330" y="381" type="curve" smooth="yes"/>
    </contour>
  </outline>
</glyph>
<glyph name="less" format="1">
  <advance width="615"/>
  <unicode hex="003C"/>
  <outline>
    <contour>
      <point x="31" y="210" type="line"/>
      <point x="513" y="13" type="line"/>
      <point x="521" y="75" type="line"/>
      <point x="85" y="254" type="line"/>
      <point x="572" y="433" type="line"/>
      <point x="580" y="495" type="line"/>
      <point x="44" y="298" type="line"/>
    </contour>
  </outline>
</glyph>
<glyph name="equal" format="1">
  <advance width="615"/>
  <unicode hex="003D"/>
  <outline>
    <contour>
      <point x="559" y="328" type="line"/>
      <point x="567" y="386" type="line"/>
      <point x="67" y="386" type="line"/>
      <point x="59" y="328" type="line"/>
    </contour>
    <contour>
      <point x="530" y="120" type="line"/>
      <point x="538" y="178" type="line"/>
      <point x="38" y="178" type="line"/>
      <point x="30" y="120" type="line"/>
    </contour>
  </outline>
</glyph>
<glyph name="greater" format="1">
  <advance width="615"/>
  <unicode hex="003E"/>
  <outline>
    <contour>
      <point x="570" y="298" type="line"/>
      <point x="88" y="495" type="line"/>
      <point x="80" y="433" type="line"/>
      <point x="517" y="254" type="line"/>
      <point x="29" y="75" type="line"/>
      <point x="21" y="13" type="line"/>
      <point x="557" y="210" type="line"/>
    </contour>
  </outline>
</glyph>
<glyph name="question" format="1">
  <advance width="502"/>
  <unicode hex="003F"/>
  <outline>
    <contour>
      <point x="167" y="0" type="line"/>
      <point x="232" y="0" type="line"/>
      <point x="241" y="69" type="line"/>
      <point x="176" y="69" type="line"/>
    </contour>
    <contour>
      <point x="259" y="231" type="line" smooth="yes"/>
      <point x="275" y="346"/>
      <point x="458" y="351"/>
      <point x="458" y="539" type="curve" smooth="yes"/>
      <point x="458" y="590"/>
      <point x="441" y="697"/>
      <point x="289" y="697" type="curve" smooth="yes"/>
      <point x="94" y="697"/>
      <point x="61" y="529"/>
      <point x="57" y="498" type="curve"/>
      <point x="56" y="492"/>
      <point x="55" y="476"/>
      <point x="55" y="465" type="curve"/>
      <point x="109" y="465" type="line"/>
      <point x="109" y="465"/>
      <point x="109" y="484"/>
      <point x="110" y="494" type="curve"/>
      <point x="115" y="529"/>
      <point x="145" y="648"/>
      <point x="284" y="648" type="curve" smooth="yes"/>
      <point x="386" y="648"/>
      <point x="404" y="580"/>
      <point x="404" y="534" type="curve" smooth="yes"/>
      <point x="404" y="373"/>
      <point x="224" y="369"/>
      <point x="207" y="244" type="curve" smooth="yes"/>
      <point x="196" y="166" type="line"/>
      <point x="250" y="166" type="line"/>
    </contour>
  </outline>
</glyph>
<glyph name="B" format="1">
  <advance width="652"/>
  <unicode hex="0042"/>
  <outline>
    <contour>
      <point x="51" y="0" type="line"/>
      <point x="331" y="0" type="line" smooth="yes"/>
      <point x="450" y="0"/>
      <point x="549" y="100"/>
      <point x="549" y="216" type="curve" smooth="yes"/>
      <point x="549" y="322"/>
      <point x="466" y="348"/>
      <point x="434" y="353" type="curve"/>
      <point x="435" y="359" type="line"/>
      <point x="490" y="372"/>
      <point x="579" y="423"/>
      <point x="579" y="540" type="curve" smooth="yes"/>
      <point x="579" y="622"/>
      <point x="513" y="686"/>
      <point x="422" y="686" type="curve" smooth="yes"/>
      <point x="148" y="686" type="line"/>
    </contour>
    <contour>
      <point x="158" y="374" type="line"/>
      <point x="195" y="638" type="line"/>
      <point x="405" y="638" type="line" smooth="yes"/>
      <point x="473" y="638"/>
      <point x="522" y="591"/>
      <point x="522" y="526" type="curve" smooth="yes"/>
      <point x="522" y="441"/>
      <point x="449" y="374"/>
      <point x="368" y="374" type="curve" smooth="yes"/>
    </contour>
    <contour>
      <point x="112" y="48" type="line"/>
      <point x="151" y="326" type="line"/>
      <point x="371" y="326" type="line" smooth="yes"/>
      <point x="442" y="326"/>
      <point x="494" y="274"/>
      <point x="494" y="206" type="curve" smooth="yes"/>
      <point x="494" y="118"/>
      <point x="416" y="48"/>
      <point x="332" y="48" type="curve" smooth="yes"/>
    </contour>
  </outline>
</glyph>
<glyph name="F" format="1">
  <advance width="552"/>
  <unicode hex="0046"/>
  <outline>
    <contour>
      <point x="554" y="686" type="line"/>
      <point x="148" y="686" type="line"/>
      <point x="51" y="0" type="line"/>
      <point x="105" y="0" type="line"/>
      <point x="151" y="326" type="line"/>
      <point x="444" y="326" type="line"/>
      <point x="451" y="374" type="line"/>
      <point x="158" y="374" type="line"/>
      <point x="195" y="638" type="line"/>
      <point x="541" y="638" type="line"/>
    </contour>
  </outline>
</glyph>
<glyph name="G" format="1">
  <advance width="675"/>
  <unicode hex="0047"/>
  <outline>
    <contour>
      <point x="516" y="251" type="line" smooth="yes"/>
      <point x="494" y="79"/>
      <point x="384" y="38"/>
      <point x="292" y="38" type="curve" smooth="yes"/>
      <point x="186" y="38"/>
      <point x="110" y="76"/>
      <point x="110" y="227" type="curve" smooth="yes"/>
      <point x="110" y="254"/>
      <point x="111" y="284"/>
      <point x="123" y="368" type="curve" smooth="yes"/>
      <point x="155" y="595"/>
      <point x="250" y="648"/>
      <point x="367" y="648" type="curve" smooth="yes"/>
      <point x="458" y="648"/>
      <point x="543" y="616"/>
      <point x="543" y="494" type="curve" smooth="yes"/>
      <point x="543" y="480"/>
      <point x="542" y="465"/>
      <point x="540" y="449" type="curve"/>
      <point x="593" y="449" type="line"/>
      <point x="596" y="469"/>
      <point x="597" y="487"/>
      <point x="597" y="504" type="curve" smooth="yes"/>
      <point x="597" y="655"/>
      <point x="490" y="696"/>
      <point x="374" y="696" type="curve" smooth="yes"/>
      <point x="227" y="696"/>
      <point x="104" y="631"/>
      <point x="68" y="356" type="curve" smooth="yes"/>
      <point x="59" y="289"/>
      <point x="57" y="254"/>
      <point x="57" y="223" type="curve" smooth="yes"/>
      <point x="57" y="37"/>
      <point x="153" y="-10"/>
      <point x="285" y="-10" type="curve" smooth="yes"/>
      <point x="362" y="-10"/>
      <point x="446" y="18"/>
      <point x="496" y="92" type="curve"/>
      <point x="496" y="30"/>
      <point x="499" y="0"/>
      <point x="499" y="0" type="curve"/>
      <point x="536" y="0" type="line"/>
      <point x="536" y="0"/>
      <point x="537" y="48"/>
      <point x="547" y="119" type="curve" smooth="yes"/>
      <point x="579" y="350" type="line"/>
      <point x="297" y="350" type="line"/>
      <point x="291" y="303" type="line"/>
      <point x="523" y="303" type="line"/>
    </contour>
    <contour>
      <point x="359" y="686" type="move" name="top"/>
    </contour>
    <contour>
      <point x="302" y="0" type="move" name="bottom"/>
    </contour>
  </outline>
</glyph>
<glyph name="I" format="1">
  <advance width="365"/>
  <unicode hex="0049"/>
  <outline>
    <contour>
      <point x="102" y="637" type="line"/>
      <point x="181" y="637" type="line"/>
      <point x="98" y="49" type="line"/>
      <point x="19" y="49" type="line"/>
      <point x="12" y="0" type="line"/>
      <point x="224" y="0" type="line"/>
      <point x="231" y="49" type="line"/>
      <point x="152" y="49" type="line"/>
      <point x="235" y="637" type="line"/>
      <point x="314" y="637" type="line"/>
      <point x="321" y="686" type="line"/>
      <point x="109" y="686" type="line"/>
    </contour>
    <contour>
      <point x="222" y="10" type="move" name="ogonek"/>
    </contour>
    <contour>
      <point x="215" y="686" type="move" name="top"/>
    </contour>
  </outline>
</glyph>
<glyph name="J" format="1">
  <advance width="525"/>
  <unicode hex="004A"/>
  <outline>
    <contour>
      <point x="15" y="185" type="line"/>
      <point x="10" y="155"/>
      <point x="10" y="145"/>
      <point x="10" y="135" type="curve" smooth="yes"/>
      <point x="10" y="39"/>
      <point x="80" y="-10"/>
      <point x="177" y="-10" type="curve" smooth="yes"/>
      <point x="293" y="-10"/>
      <point x="378" y="50"/>
      <point x="394" y="166" type="curve" smooth="yes"/>
      <point x="467" y="686" type="line"/>
      <point x="413" y="686" type="line"/>
      <point x="341" y="172" type="line" smooth="yes"/>
      <point x="328" y="78"/>
      <point x="260" y="38"/>
      <point x="183" y="38" type="curve" smooth="yes"/>
      <point x="113" y="38"/>
      <point x="61" y="70"/>
      <point x="61" y="146" type="curve" smooth="yes"/>
      <point x="61" y="154"/>
      <point x="61" y="163"/>
      <point x="65" y="185" type="curve"/>
    </contour>
    <contour>
      <point x="410" y="686" type="move" name="top"/>
    </contour>
  </outline>
</glyph>
<glyph name="K" format="1">
  <advance width="621"/>
  <unicode hex="004B"/>
  <outline>
    <contour>
      <point x="51" y="0" type="line"/>
      <point x="105" y="0" type="line"/>
      <point x="135" y="208" type="line"/>
      <point x="277" y="346" type="line"/>
      <point x="472" y="0" type="line"/>
      <point x="540" y="0" type="line"/>
      <point x="320" y="387" type="line"/>
      <point x="629" y="686" type="line"/>
      <point x="565" y="686" type="line"/>
      <point x="145" y="279" type="line"/>
      <point x="202" y="686" type="line"/>
      <point x="148" y="686" type="line"/>
    </contour>
    <contour>
      <point x="372" y="686" type="move" name="top"/>
    </contour>
    <contour>
      <point x="275" y="0" type="move" name="bottom"/>
    </contour>
  </outline>
</glyph>
<glyph name="P" format="1">
  <advance width="626"/>
  <unicode hex="0050"/>
  <outline>
    <contour>
      <point x="105" y="0" type="line"/>
      <point x="149" y="312" type="line"/>
      <point x="376" y="312" type="line" smooth="yes"/>
      <point x="500" y="312"/>
      <point x="591" y="411"/>
      <point x="591" y="526" type="curve" smooth="yes"/>
      <point x="591" y="616"/>
      <point x="523" y="686"/>
      <point x="429" y="686" type="curve" smooth="yes"/>
      <point x="148" y="686" type="line"/>
      <point x="51" y="0" type="line"/>
    </contour>
    <contour>
      <point x="156" y="359" type="line"/>
      <point x="195" y="638" type="line"/>
      <point x="415" y="638" type="line" smooth="yes"/>
      <point x="486" y="638"/>
      <point x="538" y="587"/>
      <point x="538" y="519" type="curve" smooth="yes"/>
      <point x="538" y="432"/>
      <point x="470" y="359"/>
      <point x="376" y="359" type="curve" smooth="yes"/>
    </contour>
  </outline>
</glyph>
<glyph name="Q" format="1">
  <advance width="690"/>
  <unicode hex="0051"/>
  <outline>
    <contour>
      <point x="465" y="-137"/>
      <point x="519" y="-110"/>
      <point x="519" y="-110" type="curve"/>
      <point x="526" y="-61" type="line"/>
      <point x="526" y="-62"/>
      <point x="455" y="-90"/>
      <point x="408" y="-90" type="curve" smooth="yes"/>
      <point x="333" y="-90"/>
      <point x="313" y="-46"/>
      <point x="311" y="-9" type="curve"/>
      <point x="446" y="-1"/>
      <point x="564" y="71"/>
      <point x="597" y="330" type="curve" smooth="yes"/>
      <point x="605" y="394"/>
      <point x="608" y="428"/>
      <point x="608" y="458" type="curve" smooth="yes"/>
      <point x="608" y="648"/>
      <point x="509" y="696"/>
      <point x="382" y="696" type="curve" smooth="yes"/>
      <point x="235" y="696"/>
      <point x="104" y="631"/>
      <point x="68" y="356" type="curve" smooth="yes"/>
      <point x="59" y="291"/>
      <point x="57" y="258"/>
      <point x="57" y="228" type="curve" smooth="yes"/>
      <point x="57" y="49"/>
      <point x="144" y="-4"/>
      <point x="261" y="-9" type="curve"/>
      <point x="261" y="-66"/>
      <point x="283" y="-137"/>
      <point x="402" y="-137" type="curve" smooth="yes"/>
    </contour>
    <contour>
      <point x="189" y="38"/>
      <point x="110" y="77"/>
      <point x="110" y="232" type="curve" smooth="yes"/>
      <point x="110" y="257"/>
      <point x="111" y="286"/>
      <point x="123" y="368" type="curve" smooth="yes"/>
      <point x="156" y="595"/>
      <point x="258" y="648"/>
      <point x="375" y="648" type="curve" smooth="yes"/>
      <point x="475" y="648"/>
      <point x="555" y="609"/>
      <point x="555" y="454" type="curve" smooth="yes"/>
      <point x="555" y="428"/>
      <point x="553" y="400"/>
      <point x="542" y="318" type="curve" smooth="yes"/>
      <point x="511" y="91"/>
      <point x="407" y="38"/>
      <point x="290" y="38" type="curve" smooth="yes"/>
    </contour>
  </outline>
</glyph>
<glyph name="T" format="1">
  <advance width="575"/>
  <unicode hex="0054"/>
  <outline>
    <contour>
      <point x="583" y="638" type="line"/>
      <point x="590" y="686" type="line"/>
      <point x="74" y="686" type="line"/>
      <point x="67" y="638" type="line"/>
      <point x="299" y="638" type="line"/>
      <point x="209" y="0" type="line"/>
      <point x="261" y="0" type="line"/>
      <point x="351" y="638" type="line"/>
    </contour>
    <contour>
      <point x="285" y="343" type="move" name="center"/>
    </contour>
    <contour>
      <point x="241" y="0" type="move" name="bottom"/>
    </contour>
    <contour>
      <point x="332" y="686" type="move" name="top"/>
    </contour>
  </outline>
</glyph>
<glyph name="W" format="1">
  <advance width="914"/>
  <unicode hex="0057"/>
  <outline>
    <contour>
      <point x="602" y="107" type="line"/>
      <point x="598" y="107" type="line"/>
      <point x="513" y="686" type="line"/>
      <point x="463" y="686" type="line"/>
      <point x="214" y="107" type="line"/>
      <point x="210" y="107" type="line"/>
      <point x="125" y="686" type="line"/>
      <point x="67" y="686" type="line"/>
      <point x="170" y="0" type="line"/>
      <point x="216" y="0" type="line"/>
      <point x="467" y="581" type="line"/>
      <point x="471" y="581" type="line"/>
      <point x="558" y="0" type="line"/>
      <point x="604" y="0" type="line"/>
      <point x="901" y="686" type="line"/>
      <point x="851" y="686" type="line"/>
    </contour>
    <contour>
      <point x="488" y="686" type="move" name="top"/>
    </contour>
  </outline>
</glyph>
<glyph name="X" format="1">
  <advance width="628"/>
  <unicode hex="0058"/>
  <outline>
    <contour>
      <point x="614" y="686" type="line"/>
      <point x="555" y="686" type="line"/>
      <point x="314" y="402" type="line"/>
      <point x="310" y="402" type="line"/>
      <point x="152" y="686" type="line"/>
      <point x="87" y="686" type="line"/>
      <point x="273" y="359" type="line"/>
      <point x="-32" y="0" type="line"/>
      <point x="26" y="0" type="line"/>
      <point x="294" y="315" type="line"/>
      <point x="298" y="315" type="line"/>
      <point x="474" y="0" type="line"/>
      <point x="539" y="0" type="line"/>
      <point x="335" y="359" type="line"/>
    </contour>
  </outline>
</glyph>
<glyph name="Y" format="1">
  <advance width="570"/>
  <unicode hex="0059"/>
  <outline>
    <contour>
      <point x="595" y="686" type="line"/>
      <point x="540" y="686" type="line"/>
      <point x="275" y="321" type="line"/>
      <point x="270" y="321" type="line"/>
      <point x="112" y="686" type="line"/>
      <point x="49" y="686" type="line"/>
      <point x="236" y="266" type="line"/>
      <point x="198" y="0" type="line"/>
      <point x="252" y="0" type="line"/>
      <point x="290" y="266" type="line"/>
    </contour>
    <contour>
      <point x="326" y="686" type="move" name="top"/>
    </contour>
  </outline>
</glyph>
<glyph name="Z" format="1">
  <advance width="595"/>
  <unicode hex="005A"/>
  <outline>
    <contour>
      <point x="494" y="0" type="line"/>
      <point x="501" y="48" type="line"/>
      <point x="79" y="48" type="line"/>
      <point x="579" y="662" type="line"/>
      <point x="583" y="686" type="line"/>
      <point x="112" y="686" type="line"/>
      <point x="105" y="638" type="line"/>
      <point x="494" y="638" type="line"/>
      <point x="-5" y="25" type="line"/>
      <point x="-9" y="0" type="line"/>
    </contour>
    <contour>
      <point x="359" y="686" type="move" name="top"/>
    </contour>
  </outline>
</glyph>
<glyph name="c" format="1">
  <advance width="546"/>
  <unicode hex="0063"/>
  <outline>
    <contour>
      <point x="402" y="197" type="line"/>
      <point x="387" y="86"/>
      <point x="312" y="36"/>
      <point x="231" y="36" type="curve" smooth="yes"/>
      <point x="151" y="36"/>
      <point x="93" y="87"/>
      <point x="93" y="192" type="curve" smooth="yes"/>
      <point x="93" y="323"/>
      <point x="146" y="475"/>
      <point x="291" y="475" type="curve" smooth="yes"/>
      <point x="364" y="475"/>
      <point x="421" y="433"/>
      <point x="421" y="346" type="curve" smooth="yes"/>
      <point x="421" y="336"/>
      <point x="420" y="325"/>
      <point x="419" y="314" type="curve"/>
      <point x="469" y="314" type="line"/>
      <point x="471" y="327"/>
      <point x="471" y="339"/>
      <point x="471" y="351" type="curve" smooth="yes"/>
      <point x="471" y="461"/>
      <point x="399" y="521"/>
      <point x="298" y="521" type="curve" smooth="yes"/>
      <point x="121" y="521"/>
      <point x="42" y="350"/>
      <point x="42" y="191" type="curve" smooth="yes"/>
      <point x="42" y="62"/>
      <point x="113" y="-10"/>
      <point x="224" y="-10" type="curve" smooth="yes"/>
      <point x="336" y="-10"/>
      <point x="434" y="64"/>
      <point x="452" y="197" type="curve"/>
    </contour>
    <contour>
      <point x="289" y="511" type="move" name="top"/>
    </contour>
    <contour>
      <point x="237" y="0" type="move" name="bottom"/>
    </contour>
  </outline>
</glyph>
<glyph name="h" format="1">
  <advance width="593"/>
  <unicode hex="0068"/>
  <outline>
    <contour>
      <point x="445" y="0" type="line"/>
      <point x="493" y="343"/>
      <point x="494" y="335"/>
      <point x="494" y="368" type="curve" smooth="yes"/>
      <point x="494" y="473"/>
      <point x="423" y="521"/>
      <point x="328" y="521" type="curve" smooth="yes"/>
      <point x="269" y="521"/>
      <point x="197" y="493"/>
      <point x="155" y="439" type="curve"/>
      <point x="194" y="720" type="line"/>
      <point x="143" y="720" type="line"/>
      <point x="42" y="0" type="line"/>
      <point x="93" y="0" type="line"/>
      <point x="137" y="314" type="line" smooth="yes"/>
      <point x="150" y="406"/>
      <point x="227" y="475"/>
      <point x="317" y="475" type="curve" smooth="yes"/>
      <point x="395" y="475"/>
      <point x="441" y="437"/>
      <point x="441" y="354" type="curve" smooth="yes"/>
      <point x="441" y="329"/>
      <point x="440" y="328"/>
      <point x="394" y="0" type="curve"/>
    </contour>
    <contour>
      <point x="293" y="256" type="move" name="center"/>
    </contour>
    <contour>
      <point x="168" y="686" type="move" name="top"/>
    </contour>
  </outline>
</glyph>
<glyph name="i" format="1">
  <advance width="260"/>
  <unicode hex="0069"/>
  <outline>
    <contour>
      <point x="93" y="0" type="line"/>
      <point x="165" y="511" type="line"/>
      <point x="114" y="511" type="line"/>
      <point x="42" y="0" type="line"/>
    </contour>
    <contour>
      <point x="132" y="666" type="line"/>
      <point x="191" y="666" type="line"/>
      <point x="198" y="720" type="line"/>
      <point x="139" y="720" type="line"/>
    </contour>
  </outline>
</glyph>
<glyph name="m" format="1">
  <advance width="867"/>
  <unicode hex="006D"/>
  <outline>
    <contour>
      <point x="542" y="521"/>
      <point x="481" y="479"/>
      <point x="448" y="434" type="curve"/>
      <point x="426" y="493"/>
      <point x="372" y="521"/>
      <point x="306" y="521" type="curve" smooth="yes"/>
      <point x="246" y="521"/>
      <point x="187" y="489"/>
      <point x="149" y="435" type="curve"/>
      <point x="149" y="511" type="line"/>
      <point x="114" y="511" type="line"/>
      <point x="42" y="0" type="line"/>
      <point x="93" y="0" type="line"/>
      <point x="137" y="314" type="line" smooth="yes"/>
      <point x="150" y="406"/>
      <point x="216" y="475"/>
      <point x="296" y="475" type="curve" smooth="yes"/>
      <point x="364" y="475"/>
      <point x="402" y="439"/>
      <point x="402" y="361" type="curve" smooth="yes"/>
      <point x="402" y="329"/>
      <point x="400" y="331"/>
      <point x="354" y="0" type="curve"/>
      <point x="405" y="0" type="line"/>
      <point x="449" y="314" type="line" smooth="yes"/>
      <point x="462" y="406"/>
      <point x="528" y="475"/>
      <point x="608" y="475" type="curve" smooth="yes"/>
      <point x="676" y="475"/>
      <point x="714" y="439"/>
      <point x="714" y="361" type="curve" smooth="yes"/>
      <point x="714" y="325"/>
      <point x="712" y="331"/>
      <point x="666" y="0" type="curve"/>
      <point x="717" y="0" type="line"/>
      <point x="765" y="344"/>
      <point x="766" y="334"/>
      <point x="766" y="371" type="curve" smooth="yes"/>
      <point x="766" y="474"/>
      <point x="702" y="521"/>
      <point x="618" y="521" type="curve" smooth="yes"/>
    </contour>
  </outline>
</glyph>
<glyph name="n" format="1">
  <advance width="593"/>
  <unicode hex="006E"/>
  <outline>
    <contour>
      <point x="444" y="0" type="line"/>
      <point x="492" y="343"/>
      <point x="493" y="345"/>
      <point x="493" y="368" type="curve" smooth="yes"/>
      <point x="493" y="473"/>
      <point x="423" y="521"/>
      <point x="328" y="521" type="curve" smooth="yes"/>
      <point x="261" y="521"/>
      <point x="191" y="489"/>
      <point x="148" y="435" type="curve"/>
      <point x="148" y="511" type="line"/>
      <point x="114" y="511" type="line"/>
      <point x="42" y="0" type="line"/>
      <point x="93" y="0" type="line"/>
      <point x="137" y="314" type="line" smooth="yes"/>
      <point x="150" y="406"/>
      <point x="227" y="475"/>
      <point x="317" y="475" type="curve" smooth="yes"/>
      <point x="395" y="475"/>
      <point x="441" y="437"/>
      <point x="441" y="354" type="curve" smooth="yes"/>
      <point x="441" y="342"/>
      <point x="440" y="328"/>
      <point x="394" y="0" type="curve"/>
    </contour>
    <contour>
      <point x="323" y="511" type="move" name="top"/>
    </contour>
    <contour>
      <point x="244" y="0" type="move" name="bottom"/>
    </contour>
  </outline>
</glyph>
<glyph name="q" format="1">
  <advance width="582"/>
  <unicode hex="0071"/>
  <outline>
    <contour>
      <point x="351" y="-180" type="line"/>
      <point x="402" y="-180" type="line"/>
      <point x="499" y="511" type="line"/>
      <point x="478" y="511" type="line"/>
      <point x="447" y="426" type="line"/>
      <point x="418" y="490"/>
      <point x="365" y="521"/>
      <point x="287" y="521" type="curve" smooth="yes"/>
      <point x="113" y="521"/>
      <point x="40" y="335"/>
      <point x="40" y="186" type="curve" smooth="yes"/>
      <point x="40" y="58"/>
      <point x="113" y="-10"/>
      <point x="212" y="-10" type="curve" smooth="yes"/>
      <point x="284" y="-10"/>
      <point x="346" y="21"/>
      <point x="387" y="71" type="curve"/>
    </contour>
    <contour>
      <point x="148" y="36"/>
      <point x="92" y="83"/>
      <point x="92" y="189" type="curve" smooth="yes"/>
      <point x="92" y="322"/>
      <point x="144" y="475"/>
      <point x="285" y="475" type="curve" smooth="yes"/>
      <point x="359" y="475"/>
      <point x="418" y="437"/>
      <point x="418" y="319" type="curve" smooth="yes"/>
      <point x="418" y="185"/>
      <point x="368" y="36"/>
      <point x="224" y="36" type="curve" smooth="yes"/>
    </contour>
  </outline>
</glyph>
<glyph name="braceright" format="1">
  <advance width="314"/>
  <unicode hex="007D"/>
  <outline>
    <contour>
      <point x="204" y="259" type="line"/>
      <point x="138" y="259"/>
      <point x="117" y="221"/>
      <point x="106" y="156" type="curve" smooth="yes"/>
      <point x="69" y="-62" type="line" smooth="yes"/>
      <point x="61" y="-108"/>
      <point x="9" y="-121"/>
      <point x="-19" y="-121" type="curve"/>
      <point x="-24" y="-159" type="line"/>
      <point x="34" y="-159"/>
      <point x="111" y="-142"/>
      <point x="124" y="-47" type="curve" smooth="yes"/>
      <point x="154" y="167" type="line" smooth="yes"/>
      <point x="160" y="209"/>
      <point x="203" y="224"/>
      <point x="239" y="224" type="curve"/>
      <point x="250" y="303" type="line"/>
      <point x="216" y="303"/>
      <point x="181" y="316"/>
      <point x="181" y="352" type="curve" smooth="yes"/>
      <point x="181" y="390"/>
      <point x="212" y="541"/>
      <point x="212" y="593" type="curve" smooth="yes"/>
      <point x="212" y="663"/>
      <point x="149" y="686"/>
      <point x="95" y="686" type="curve"/>
      <point x="90" y="648" type="line"/>
      <point x="117" y="648"/>
      <point x="161" y="637"/>
      <point x="161" y="597" type="curve" smooth="yes"/>
      <point x="161" y="554"/>
      <point x="135" y="396"/>
      <point x="135" y="337" type="curve" smooth="yes"/>
      <point x="135" y="293"/>
      <point x="151" y="268"/>
      <point x="205" y="268" type="curve"/>
    </contour>
  </outline>
</glyph>
<glyph name="exclamdown" format="1">
  <advance width="254"/>
  <unicode hex="00A1"/>
  <outline>
    <contour>
      <point x="91" y="441" type="line"/>
      <point x="156" y="441" type="line"/>
      <point x="166" y="510" type="line"/>
      <point x="101" y="510" type="line"/>
    </contour>
    <contour>
      <point x="3" y="-176" type="line"/>
      <point x="69" y="-176" type="line"/>
      <point x="135" y="369" type="line"/>
      <point x="93" y="369" type="line"/>
    </contour>
  </outline>
</glyph>
<glyph name="sterling" format="1">
  <advance width="597"/>
  <unicode hex="00A3"/>
  <outline>
    <contour>
      <point x="32" y="314" type="line"/>
      <point x="171" y="314" type="line"/>
      <point x="134" y="48" type="line"/>
      <point x="33" y="48" type="line"/>
      <point x="26" y="0" type="line"/>
      <point x="492" y="0" type="line"/>
      <point x="499" y="48" type="line"/>
      <point x="175" y="48" type="line"/>
      <point x="220" y="277" type="line"/>
      <point x="225" y="314" type="line"/>
      <point x="453" y="314" type="line"/>
      <point x="460" y="362" type="line"/>
      <point x="232" y="362" type="line"/>
      <point x="254" y="518" type="line" smooth="yes"/>
      <point x="267" y="612"/>
      <point x="335" y="652"/>
      <point x="412" y="652" type="curve" smooth="yes"/>
      <point x="481" y="652"/>
      <point x="534" y="620"/>
      <point x="534" y="544" type="curve" smooth="yes"/>
      <point x="534" y="536"/>
      <point x="534" y="527"/>
      <point x="530" y="505" type="curve"/>
      <point x="580" y="505" type="line"/>
      <point x="585" y="535"/>
      <point x="585" y="545"/>
      <point x="585" y="555" type="curve" smooth="yes"/>
      <point x="585" y="650"/>
      <point x="516" y="700"/>
      <point x="419" y="700" type="curve" smooth="yes"/>
      <point x="312" y="700"/>
      <point x="217" y="640"/>
      <point x="201" y="524" type="curve" smooth="yes"/>
      <point x="178" y="362" type="line"/>
      <point x="39" y="362" type="line"/>
    </contour>
  </outline>
</glyph>
<glyph name="brokenbar" format="1">
  <advance width="269"/>
  <unicode hex="00A6"/>
  <outline>
    <contour>
      <point x="49" y="0" type="line"/>
      <point x="114" y="0" type="line"/>
      <point x="151" y="262" type="line"/>
      <point x="86" y="262" type="line"/>
    </contour>
    <contour>
      <point x="109" y="424" type="line"/>
      <point x="174" y="424" type="line"/>
      <point x="211" y="686" type="line"/>
      <point x="146" y="686" type="line"/>
    </contour>
  </outline>
</glyph>
<glyph name="dieresis" format="1">
  <advance width="440"/>
  <unicode hex="00A8"/>
  <outline>
    <contour>
      <point x="73" y="651" type="line"/>
      <point x="138" y="651" type="line"/>
      <point x="147" y="720" type="line"/>
      <point x="82" y="720" type="line"/>
    </contour>
    <contour>
      <point x="249" y="651" type="line"/>
      <point x="314" y="651" type="line"/>
      <point x="323" y="720" type="line"/>
      <point x="258" y="720" type="line"/>
    </contour>
    <contour>
      <point x="173" y="511" type="move" name="_top"/>
    </contour>
  </outline>
</glyph>
<glyph name="copyright" format="1">
  <advance width="785"/>
  <unicode hex="00A9"/>
  <outline>
    <contour>
      <point x="527" y="394" type="line"/>
      <point x="563" y="394" type="line"/>
      <point x="563" y="509"/>
      <point x="492" y="558"/>
      <point x="404" y="558" type="curve" smooth="yes"/>
      <point x="314" y="558"/>
      <point x="241" y="510"/>
      <point x="241" y="393" type="curve" smooth="yes"/>
      <point x="241" y="294" type="line" smooth="yes"/>
      <point x="241" y="176"/>
      <point x="314" y="129"/>
      <point x="404" y="129" type="curve" smooth="yes"/>
      <point x="492" y="129"/>
      <point x="563" y="177"/>
      <point x="563" y="292" type="curve"/>
      <point x="528" y="292" type="line"/>
      <point x="528" y="207"/>
      <point x="476" y="165"/>
      <point x="404" y="165" type="curve" smooth="yes"/>
      <point x="336" y="165"/>
      <point x="281" y="202"/>
      <point x="281" y="287" type="curve" smooth="yes"/>
      <point x="281" y="401" type="line" smooth="yes"/>
      <point x="281" y="484"/>
      <point x="336" y="522"/>
      <point x="404" y="522" type="curve" smooth="yes"/>
      <point x="471" y="522"/>
      <point x="527" y="484"/>
      <point x="527" y="401" type="curve" smooth="yes"/>
    </contour>
    <contour>
      <point x="754" y="539"/>
      <point x="595" y="696"/>
      <point x="400" y="696" type="curve" smooth="yes"/>
      <point x="204" y="696"/>
      <point x="46" y="539"/>
      <point x="46" y="344" type="curve" smooth="yes"/>
      <point x="46" y="147"/>
      <point x="204" y="-10"/>
      <point x="400" y="-10" type="curve" smooth="yes"/>
      <point x="595" y="-10"/>
      <point x="754" y="147"/>
      <point x="754" y="344" type="curve" smooth="yes"/>
    </contour>
    <contour>
      <point x="728" y="162"/>
      <point x="580" y="16"/>
      <point x="400" y="16" type="curve" smooth="yes"/>
      <point x="219" y="16"/>
      <point x="72" y="162"/>
      <point x="72" y="344" type="curve" smooth="yes"/>
      <point x="72" y="524"/>
      <point x="219" y="670"/>
      <point x="400" y="670" type="curve" smooth="yes"/>
      <point x="580" y="670"/>
      <point x="728" y="524"/>
      <point x="728" y="344" type="curve" smooth="yes"/>
    </contour>
  </outline>
</glyph>
<glyph name="guillemotleft" format="1">
  <advance width="458"/>
  <unicode hex="00AB"/>
  <outline>
    <contour>
      <point x="377" y="163" type="line"/>
      <point x="305" y="337" type="line"/>
      <point x="426" y="511" type="line"/>
      <point x="385" y="511" type="line"/>
      <point x="237" y="337" type="line"/>
      <point x="336" y="163" type="line"/>
    </contour>
    <contour>
      <point x="194" y="163" type="line"/>
      <point x="122" y="337" type="line"/>
      <point x="243" y="511" type="line"/>
      <point x="202" y="511" type="line"/>
      <point x="55" y="337" type="line"/>
      <point x="153" y="163" type="line"/>
    </contour>
  </outline>
</glyph>
<glyph name="logicalnot" format="1">
  <advance width="615"/>
  <unicode hex="00AC"/>
  <outline>
    <contour>
      <point x="564" y="435" type="line"/>
      <point x="52" y="435" type="line"/>
      <point x="44" y="376" type="line"/>
      <point x="498" y="376" type="line"/>
      <point x="471" y="184" type="line"/>
      <point x="529" y="184" type="line"/>
    </contour>
  </outline>
</glyph>
<glyph name="degree" format="1">
  <advance width="404"/>
  <unicode hex="00B0"/>
  <outline>
    <contour>
      <point x="392" y="633"/>
      <point x="331" y="696"/>
      <point x="252" y="696" type="curve" smooth="yes"/>
      <point x="160" y="696"/>
      <point x="92" y="623"/>
      <point x="92" y="536" type="curve" smooth="yes"/>
      <point x="92" y="458"/>
      <point x="151" y="396"/>
      <point x="231" y="396" type="curve" smooth="yes"/>
      <point x="327" y="396"/>
      <point x="392" y="474"/>
      <point x="392" y="555" type="curve" smooth="yes"/>
    </contour>
    <contour>
      <point x="305" y="651"/>
      <point x="347" y="609"/>
      <point x="347" y="554" type="curve" smooth="yes"/>
      <point x="347" y="491"/>
      <point x="296" y="439"/>
      <point x="234" y="439" type="curve" smooth="yes"/>
      <point x="177" y="439"/>
      <point x="135" y="482"/>
      <point x="135" y="537" type="curve" smooth="yes"/>
      <point x="135" y="603"/>
      <point x="194" y="651"/>
      <point x="249" y="651" type="curve" smooth="yes"/>
    </contour>
  </outline>
</glyph>
<glyph name="plusminus" format="1">
  <advance width="615"/>
  <unicode hex="00B1"/>
  <outline>
    <contour>
      <point x="516" y="0" type="line"/>
      <point x="524" y="58" type="line"/>
      <point x="24" y="58" type="line"/>
      <point x="16" y="0" type="line"/>
    </contour>
    <contour>
      <point x="366" y="511" type="line"/>
      <point x="308" y="511" type="line"/>
      <point x="285" y="344" type="line"/>
      <point x="58" y="344" type="line"/>
      <point x="50" y="286" type="line"/>
      <point x="277" y="286" type="line"/>
      <point x="253" y="120" type="line"/>
      <point x="311" y="120" type="line"/>
      <point x="335" y="286" type="line"/>
      <point x="562" y="286" type="line"/>
      <point x="570" y="344" type="line"/>
      <point x="343" y="344" type="line"/>
    </contour>
  </outline>
</glyph>
<glyph name="paragraph" format="1">
  <advance width="524"/>
  <unicode hex="00B6"/>
  <outline>
    <contour>
      <point x="212" y="-174" type="line"/>
      <point x="326" y="637" type="line"/>
      <point x="398" y="637" type="line"/>
      <point x="284" y="-174" type="line"/>
      <point x="336" y="-174" type="line"/>
      <point x="450" y="637" type="line"/>
      <point x="516" y="637" type="line"/>
      <point x="523" y="686" type="line"/>
      <point x="313" y="686" type="line" smooth="yes"/>
      <point x="175" y="686"/>
      <point x="61" y="588"/>
      <point x="61" y="436" type="curve" smooth="yes"/>
      <point x="61" y="340"/>
      <point x="126" y="263"/>
      <point x="220" y="249" type="curve"/>
      <point x="160" y="-174" type="line"/>
    </contour>
  </outline>
</glyph>
<glyph name="cedilla" format="1">
  <advance width="350"/>
  <unicode hex="00B8"/>
  <outline>
    <contour>
      <point x="59" y="-184" type="line"/>
      <point x="81" y="-193"/>
      <point x="110" y="-197"/>
      <point x="135" y="-197" type="curve" smooth="yes"/>
      <point x="183" y="-197"/>
      <point x="267" y="-177"/>
      <point x="267" y="-90" type="curve" smooth="yes"/>
      <point x="267" y="-22"/>
      <point x="206" y="-17"/>
      <point x="147" y="-17" type="curve"/>
      <point x="142" y="-51" type="line"/>
      <point x="164" y="-51" type="line" smooth="yes"/>
      <point x="189" y="-51"/>
      <point x="216" y="-64"/>
      <point x="216" y="-91" type="curve" smooth="yes"/>
      <point x="216" y="-139"/>
      <point x="168" y="-151"/>
      <point x="132" y="-151" type="curve" smooth="yes"/>
      <point x="99" y="-151"/>
      <point x="77" y="-145"/>
      <point x="65" y="-138" type="curve"/>
    </contour>
    <contour>
      <point x="168" y="0" type="move" name="_bottom"/>
    </contour>
  </outline>
</glyph>
<glyph name="Acircumflex" format="1">
  <advance width="650"/>
  <unicode hex="00C2"/>
  <outline>
    <contour>
      <point x="522" y="0" type="line"/>
      <point x="581" y="0" type="line"/>
      <point x="394" y="686" type="line"/>
      <point x="344" y="686" type="line"/>
      <point x="-36" y="0" type="line"/>
      <point x="19" y="0" type="line"/>
      <point x="113" y="170" type="line"/>
      <point x="475" y="170" type="line"/>
    </contour>
    <contour>
      <point x="354" y="612" type="line"/>
      <point x="358" y="612" type="line"/>
      <point x="462" y="219" type="line"/>
      <point x="140" y="219" type="line"/>
    </contour>
    <contour>
      <point x="219" y="750" type="line"/>
      <point x="279" y="750" type="line"/>
      <point x="396" y="847" type="line"/>
      <point x="485" y="750" type="line"/>
      <point x="545" y="750" type="line"/>
      <point x="432" y="895" type="line"/>
      <point x="374" y="895" type="line"/>
    </contour>
  </outline>
</glyph>
<glyph name="Igrave" format="1">
  <advance width="365"/>
  <unicode hex="00CC"/>
  <outline>
    <contour>
      <point x="102" y="637" type="line"/>
      <point x="181" y="637" type="line"/>
      <point x="98" y="49" type="line"/>
      <point x="19" y="49" type="line"/>
      <point x="12" y="0" type="line"/>
      <point x="224" y="0" type="line"/>
      <point x="231" y="49" type="line"/>
      <point x="152" y="49" type="line"/>
      <point x="235" y="637" type="line"/>
      <point x="314" y="637" type="line"/>
      <point x="321" y="686" type="line"/>
      <point x="109" y="686" type="line"/>
    </contour>
    <contour>
      <point x="249" y="750" type="line"/>
      <point x="174" y="895" type="line"/>
      <point x="109" y="895" type="line"/>
      <point x="108" y="892" type="line"/>
      <point x="199" y="750" type="line"/>
    </contour>
  </outline>
</glyph>
<glyph name="Idieresis" format="1">
  <advance width="365"/>
  <unicode hex="00CF"/>
  <outline>
    <contour>
      <point x="102" y="637" type="line"/>
      <point x="181" y="637" type="line"/>
      <point x="98" y="49" type="line"/>
      <point x="19" y="49" type="line"/>
      <point x="12" y="0" type="line"/>
      <point x="224" y="0" type="line"/>
      <point x="231" y="49" type="line"/>
      <point x="152" y="49" type="line"/>
      <point x="235" y="637" type="line"/>
      <point x="314" y="637" type="line"/>
      <point x="321" y="686" type="line"/>
      <point x="109" y="686" type="line"/>
    </contour>
    <contour>
      <point x="102" y="751" type="line"/>
      <point x="167" y="751" type="line"/>
      <point x="176" y="820" type="line"/>
      <point x="111" y="820" type="line"/>
    </contour>
    <contour>
      <point x="278" y="751" type="line"/>
      <point x="343" y="751" type="line"/>
      <point x="352" y="820" type="line"/>
      <point x="287" y="820" type="line"/>
    </contour>
  </outline>
</glyph>
<glyph name="Eth" format="1">
  <advance width="682"/>
  <unicode hex="00D0"/>
  <outline>
    <contour>
      <point x="284" y="0" type="line" smooth="yes"/>
      <point x="438" y="0"/>
      <point x="564" y="74"/>
      <point x="597" y="331" type="curve" smooth="yes"/>
      <point x="605" y="391"/>
      <point x="607" y="421"/>
      <point x="607" y="450" type="curve" smooth="yes"/>
      <point x="607" y="632"/>
      <point x="508" y="686"/>
      <point x="381" y="686" type="curve" smooth="yes"/>
      <point x="161" y="686" type="line"/>
      <point x="116" y="367" type="line"/>
      <point x="16" y="367" type="line"/>
      <point x="10" y="319" type="line"/>
      <point x="109" y="319" type="line"/>
      <point x="64" y="0" type="line"/>
    </contour>
    <contour>
      <point x="125" y="48" type="line"/>
      <point x="163" y="319" type="line"/>
      <point x="335" y="319" type="line"/>
      <point x="342" y="367" type="line"/>
      <point x="170" y="367" type="line"/>
      <point x="208" y="638" type="line"/>
      <point x="374" y="638" type="line" smooth="yes"/>
      <point x="481" y="638"/>
      <point x="554" y="592"/>
      <point x="554" y="441" type="curve" smooth="yes"/>
      <point x="554" y="418"/>
      <point x="552" y="393"/>
      <point x="542" y="322" type="curve" smooth="yes"/>
      <point x="511" y="104"/>
      <point x="408" y="48"/>
      <point x="291" y="48" type="curve" smooth="yes"/>
    </contour>
  </outline>
</glyph>
<glyph name="Ntilde" format="1">
  <advance width="694"/>
  <unicode hex="00D1"/>
  <outline>
    <contour>
      <point x="530" y="0" type="line"/>
      <point x="627" y="686" type="line"/>
      <point x="579" y="686" type="line"/>
      <point x="497" y="103" type="line"/>
      <point x="493" y="103" type="line"/>
      <point x="194" y="686" type="line"/>
      <point x="148" y="686" type="line"/>
      <point x="51" y="0" type="line"/>
      <point x="99" y="0" type="line"/>
      <point x="181" y="583" type="line"/>
      <point x="185" y="583" type="line"/>
      <point x="482" y="0" type="line"/>
    </contour>
    <contour>
      <point x="555" y="832" type="line"/>
      <point x="545" y="809"/>
      <point x="527" y="800"/>
      <point x="494" y="800" type="curve" smooth="yes"/>
      <point x="440" y="800"/>
      <point x="395" y="832"/>
      <point x="331" y="832" type="curve" smooth="yes"/>
      <point x="253" y="832"/>
      <point x="223" y="782"/>
      <point x="219" y="750" type="curve"/>
      <point x="256" y="750" type="line"/>
      <point x="266" y="773"/>
      <point x="284" y="782"/>
      <point x="317" y="782" type="curve" smooth="yes"/>
      <point x="371" y="782"/>
      <point x="416" y="750"/>
      <point x="480" y="750" type="curve" smooth="yes"/>
      <point x="559" y="750"/>
      <point x="588" y="800"/>
      <point x="592" y="832" type="curve"/>
    </contour>
  </outline>
</glyph>
<glyph name="Odieresis" format="1">
  <advance width="690"/>
  <unicode hex="00D6"/>
  <outline>
    <contour>
      <point x="430" y="-10"/>
      <point x="562" y="54"/>
      <point x="597" y="330" type="curve" smooth="yes"/>
      <point x="605" y="394"/>
      <point x="608" y="428"/>
      <point x="608" y="458" type="curve" smooth="yes"/>
      <point x="608" y="648"/>
      <point x="509" y="696"/>
      <point x="382" y="696" type="curve" smooth="yes"/>
      <point x="235" y="696"/>
      <point x="104" y="631"/>
      <point x="68" y="356" type="curve" smooth="yes"/>
      <point x="59" y="291"/>
      <point x="57" y="258"/>
      <point x="57" y="228" type="curve" smooth="yes"/>
      <point x="57" y="38"/>
      <point x="156" y="-10"/>
      <point x="283" y="-10" type="curve" smooth="yes"/>
    </contour>
    <contour>
      <point x="189" y="38"/>
      <point x="110" y="77"/>
      <point x="110" y="232" type="curve" smooth="yes"/>
      <point x="110" y="257"/>
      <point x="111" y="286"/>
      <point x="123" y="368" type="curve" smooth="yes"/>
      <point x="156" y="595"/>
      <point x="258" y="648"/>
      <point x="375" y="648" type="curve" smooth="yes"/>
      <point x="475" y="648"/>
      <point x="555" y="609"/>
      <point x="555" y="454" type="curve" smooth="yes"/>
      <point x="555" y="428"/>
      <point x="553" y="400"/>
      <point x="542" y="318" type="curve" smooth="yes"/>
      <point x="511" y="91"/>
      <point x="407" y="38"/>
      <point x="290" y="38" type="curve" smooth="yes"/>
    </contour>
    <contour>
      <point x="286" y="751" type="line"/>
      <point x="351" y="751" type="line"/>
      <point x="360" y="820" type="line"/>
      <point x="295" y="820" type="line"/>
    </contour>
    <contour>
      <point x="462" y="751" type="line"/>
      <point x="527" y="751" type="line"/>
      <point x="536" y="820" type="line"/>
      <point x="471" y="820" type="line"/>
    </contour>
  </outline>
</glyph>
<glyph name="multiply" format="1">
  <advance width="615"/>
  <unicode hex="00D7"/>
  <outline>
    <contour>
      <point x="164" y="457" type="line"/>
      <point x="117" y="416" type="line"/>
      <point x="254" y="255" type="line"/>
      <point x="72" y="95" type="line"/>
      <point x="107" y="54" type="line"/>
      <point x="290" y="214" type="line"/>
      <point x="427" y="54" type="line"/>
      <point x="474" y="95" type="line"/>
      <point x="336" y="255" type="line"/>
      <point x="520" y="416" type="line"/>
      <point x="485" y="457" type="line"/>
      <point x="301" y="296" type="line"/>
    </contour>
  </outline>
</glyph>
<glyph name="Ugrave" format="1">
  <advance width="682"/>
  <unicode hex="00D9"/>
  <outline>
    <contour>
      <point x="565" y="686" type="line"/>
      <point x="500" y="222" type="line" smooth="yes"/>
      <point x="485" y="114"/>
      <point x="408" y="38"/>
      <point x="289" y="38" type="curve" smooth="yes"/>
      <point x="184" y="38"/>
      <point x="128" y="96"/>
      <point x="128" y="187" type="curve" smooth="yes"/>
      <point x="128" y="214"/>
      <point x="129" y="210"/>
      <point x="196" y="686" type="curve"/>
      <point x="142" y="686" type="line" smooth="yes"/>
      <point x="142" y="686"/>
      <point x="74" y="233"/>
      <point x="74" y="180" type="curve" smooth="yes"/>
      <point x="74" y="64"/>
      <point x="153" y="-10"/>
      <point x="283" y="-10" type="curve" smooth="yes"/>
      <point x="427" y="-10"/>
      <point x="534" y="81"/>
      <point x="554" y="220" type="curve"/>
      <point x="554" y="221"/>
      <point x="619" y="686"/>
      <point x="619" y="686" type="curve" smooth="yes"/>
    </contour>
    <contour>
      <point x="418" y="750" type="line"/>
      <point x="343" y="895" type="line"/>
      <point x="278" y="895" type="line"/>
      <point x="277" y="892" type="line"/>
      <point x="368" y="750" type="line"/>
    </contour>
  </outline>
</glyph>
<glyph name="aacute" format="1">
  <advance width="607"/>
  <unicode hex="00E1"/>
  <outline>
    <contour>
      <point x="386" y="21"/>
      <point x="400" y="-10"/>
      <point x="444" y="-10" type="curve" smooth="yes"/>
      <point x="467" y="-10"/>
      <point x="488" y="-3"/>
      <point x="507" y="9" type="curve"/>
      <point x="513" y="52" type="line"/>
      <point x="496" y="43"/>
      <point x="475" y="36"/>
      <point x="460" y="36" type="curve" smooth="yes"/>
      <point x="447" y="36"/>
      <point x="437" y="43"/>
      <point x="437" y="61" type="curve" smooth="yes"/>
      <point x="437" y="73"/>
      <point x="499" y="511"/>
      <point x="499" y="511" type="curve" smooth="yes"/>
      <point x="466" y="511" type="line"/>
      <point x="442" y="440" type="line"/>
      <point x="438" y="440" type="line"/>
      <point x="412" y="490"/>
      <point x="359" y="521"/>
      <point x="287" y="521" type="curve" smooth="yes"/>
      <point x="112" y="521"/>
      <point x="42" y="344"/>
      <point x="42" y="190" type="curve" smooth="yes"/>
      <point x="42" y="50"/>
      <point x="115" y="-10"/>
      <point x="212" y="-10" type="curve" smooth="yes"/>
      <point x="284" y="-10"/>
      <point x="342" y="15"/>
      <point x="387" y="69" type="curve"/>
      <point x="386" y="64"/>
      <point x="386" y="60"/>
      <point x="386" y="55" type="curve" smooth="yes"/>
    </contour>
    <contour>
      <point x="149" y="36"/>
      <point x="93" y="77"/>
      <point x="93" y="193" type="curve" smooth="yes"/>
      <point x="93" y="316"/>
      <point x="142" y="475"/>
      <point x="285" y="475" type="curve" smooth="yes"/>
      <point x="361" y="475"/>
      <point x="418" y="428"/>
      <point x="418" y="321" type="curve" smooth="yes"/>
      <point x="418" y="187"/>
      <point x="368" y="36"/>
      <point x="224" y="36" type="curve" smooth="yes"/>
    </contour>
    <contour>
      <point x="335" y="575" type="line"/>
      <point x="466" y="717" type="line"/>
      <point x="467" y="720" type="line"/>
      <point x="402" y="720" type="line"/>
      <point x="285" y="575" type="line"/>
    </contour>
  </outline>
</glyph>
<glyph name="ccedilla" format="1">
  <advance width="546"/>
  <unicode hex="00E7"/>
  <outline>
    <contour>
      <point x="402" y="197" type="line"/>
      <point x="387" y="86"/>
      <point x="312" y="36"/>
      <point x="231" y="36" type="curve" smooth="yes"/>
      <point x="151" y="36"/>
      <point x="93" y="87"/>
      <point x="93" y="192" type="curve" smooth="yes"/>
      <point x="93" y="323"/>
      <point x="146" y="475"/>
      <point x="291" y="475" type="curve" smooth="yes"/>
      <point x="364" y="475"/>
      <point x="421" y="433"/>
      <point x="421" y="346" type="curve" smooth="yes"/>
      <point x="421" y="336"/>
      <point x="420" y="325"/>
      <point x="419" y="314" type="curve"/>
      <point x="469" y="314" type="line"/>
      <point x="471" y="327"/>
      <point x="471" y="339"/>
      <point x="471" y="351" type="curve" smooth="yes"/>
      <point x="471" y="461"/>
      <point x="399" y="521"/>
      <point x="298" y="521" type="curve" smooth="yes"/>
      <point x="121" y="521"/>
      <point x="42" y="350"/>
      <point x="42" y="191" type="curve" smooth="yes"/>
      <point x="42" y="62"/>
      <point x="113" y="-10"/>
      <point x="224" y="-10" type="curve" smooth="yes"/>
      <point x="336" y="-10"/>
      <point x="434" y="64"/>
      <point x="452" y="197" type="curve"/>
    </contour>
    <contour>
      <point x="108" y="-184" type="line"/>
      <point x="130" y="-193"/>
      <point x="159" y="-197"/>
      <point x="184" y="-197" type="curve" smooth="yes"/>
      <point x="232" y="-197"/>
      <point x="316" y="-177"/>
      <point x="316" y="-90" type="curve" smooth="yes"/>
      <point x="316" y="-22"/>
      <point x="255" y="-17"/>
      <point x="196" y="-17" type="curve"/>
      <point x="191" y="-51" type="line"/>
      <point x="213" y="-51" type="line" smooth="yes"/>
      <point x="238" y="-51"/>
      <point x="265" y="-64"/>
      <point x="265" y="-91" type="curve" smooth="yes"/>
      <point x="265" y="-139"/>
      <point x="217" y="-151"/>
      <point x="181" y="-151" type="curve" smooth="yes"/>
      <point x="148" y="-151"/>
      <point x="126" y="-145"/>
      <point x="114" y="-138" type="curve"/>
    </contour>
  </outline>
</glyph>
<glyph name="iacute" format="1">
  <advance width="261"/>
  <unicode hex="00ED"/>
  <outline>
    <contour>
      <point x="94" y="0" type="line"/>
      <point x="165" y="511" type="line"/>
      <point x="114" y="511" type="line"/>
      <point x="43" y="0" type="line"/>
    </contour>
    <contour>
      <point x="167" y="575" type="line"/>
      <point x="298" y="717" type="line"/>
      <point x="299" y="720" type="line"/>
      <point x="234" y="720" type="line"/>
      <point x="117" y="575" type="line"/>
    </contour>
  </outline>
</glyph>
<glyph name="odieresis" format="1">
  <advance width="576"/>
  <unicode hex="00F6"/>
  <outline>
    <contour>
      <point x="404" y="-10"/>
      <point x="484" y="159"/>
      <point x="484" y="319" type="curve" smooth="yes"/>
      <point x="484" y="449"/>
      <point x="411" y="521"/>
      <point x="300" y="521" type="curve" smooth="yes"/>
      <point x="121" y="521"/>
      <point x="41" y="352"/>
      <point x="41" y="192" type="curve" smooth="yes"/>
      <point x="41" y="62"/>
      <point x="114" y="-10"/>
      <point x="225" y="-10" type="curve" smooth="yes"/>
    </contour>
    <contour>
      <point x="151" y="36"/>
      <point x="92" y="87"/>
      <point x="92" y="193" type="curve" smooth="yes"/>
      <point x="92" y="324"/>
      <point x="148" y="475"/>
      <point x="293" y="475" type="curve" smooth="yes"/>
      <point x="373" y="475"/>
      <point x="433" y="424"/>
      <point x="433" y="317" type="curve" smooth="yes"/>
      <point x="433" y="183"/>
      <point x="376" y="36"/>
      <point x="232" y="36" type="curve" smooth="yes"/>
    </contour>
    <contour>
      <point x="212" y="651" type="line"/>
      <point x="277" y="651" type="line"/>
      <point x="286" y="720" type="line"/>
      <point x="221" y="720" type="line"/>
    </contour>
    <contour>
      <point x="388" y="651" type="line"/>
      <point x="453" y="651" type="line"/>
      <point x="462" y="720" type="line"/>
      <point x="397" y="720" type="line"/>
    </contour>
  </outline>
</glyph>
<glyph name="divide" format="1">
  <advance width="615"/>
  <unicode hex="00F7"/>
  <outline>
    <contour>
      <point x="553" y="226" type="line"/>
      <point x="562" y="284" type="line"/>
      <point x="50" y="284" type="line"/>
      <point x="41" y="226" type="line"/>
    </contour>
    <contour>
      <point x="243" y="71" type="line"/>
      <point x="308" y="71" type="line"/>
      <point x="317" y="140" type="line"/>
      <point x="252" y="140" type="line"/>
    </contour>
    <contour>
      <point x="285" y="370" type="line"/>
      <point x="350" y="370" type="line"/>
      <point x="359" y="439" type="line"/>
      <point x="294" y="439" type="line"/>
    </contour>
  </outline>
</glyph>
<glyph name="oslash" format="1">
  <advance width="576"/>
  <unicode hex="00F8"/>
  <outline>
    <contour>
      <point x="416" y="-10"/>
      <point x="496" y="159"/>
      <point x="496" y="319" type="curve" smooth="yes"/>
      <point x="496" y="379"/>
      <point x="480" y="427"/>
      <point x="452" y="461" type="curve"/>
      <point x="534" y="569" type="line"/>
      <point x="489" y="569" type="line"/>
      <point x="426" y="486" type="line"/>
      <point x="396" y="509"/>
      <point x="357" y="521"/>
      <point x="312" y="521" type="curve" smooth="yes"/>
      <point x="133" y="521"/>
      <point x="53" y="352"/>
      <point x="53" y="192" type="curve" smooth="yes"/>
      <point x="53" y="132"/>
      <point x="68" y="85"/>
      <point x="95" y="51" type="curve"/>
      <point x="15" y="-55" type="line"/>
      <point x="60" y="-55" type="line"/>
      <point x="121" y="26" type="line"/>
      <point x="152" y="2"/>
      <point x="191" y="-10"/>
      <point x="237" y="-10" type="curve" smooth="yes"/>
    </contour>
    <contour>
      <point x="208" y="36"/>
      <point x="176" y="46"/>
      <point x="152" y="66" type="curve"/>
      <point x="419" y="418" type="line"/>
      <point x="436" y="393"/>
      <point x="445" y="359"/>
      <point x="445" y="317" type="curve" smooth="yes"/>
      <point x="445" y="183"/>
      <point x="388" y="36"/>
      <point x="244" y="36" type="curve" smooth="yes"/>
    </contour>
    <contour>
      <point x="104" y="324"/>
      <point x="160" y="475"/>
      <point x="305" y="475" type="curve" smooth="yes"/>
      <point x="340" y="475"/>
      <point x="371" y="465"/>
      <point x="395" y="445" type="curve"/>
      <point x="128" y="94" type="line"/>
      <point x="113" y="119"/>
      <point x="104" y="152"/>
      <point x="104" y="193" type="curve" smooth="yes"/>
    </contour>
    <contour>
      <point x="314" y="511" type="move" name="top"/>
    </contour>
  </outline>
</glyph>
<glyph name="uacute" format="1">
  <advance width="617"/>
  <unicode hex="00FA"/>
  <outline>
    <contour>
      <point x="397" y="69"/>
      <point x="396" y="62"/>
      <point x="396" y="55" type="curve" smooth="yes"/>
      <point x="396" y="21"/>
      <point x="410" y="-10"/>
      <point x="454" y="-10" type="curve" smooth="yes"/>
      <point x="477" y="-10"/>
      <point x="498" y="-3"/>
      <point x="517" y="9" type="curve"/>
      <point x="523" y="52" type="line"/>
      <point x="506" y="43"/>
      <point x="485" y="36"/>
      <point x="470" y="36" type="curve" smooth="yes"/>
      <point x="457" y="36"/>
      <point x="447" y="43"/>
      <point x="447" y="61" type="curve" smooth="yes"/>
      <point x="447" y="73"/>
      <point x="510" y="511"/>
      <point x="510" y="511" type="curve" smooth="yes"/>
      <point x="459" y="511" type="line"/>
      <point x="415" y="197" type="line" smooth="yes"/>
      <point x="402" y="105"/>
      <point x="325" y="36"/>
      <point x="235" y="36" type="curve" smooth="yes"/>
      <point x="157" y="36"/>
      <point x="111" y="68"/>
      <point x="111" y="157" type="curve" smooth="yes"/>
      <point x="111" y="197"/>
      <point x="158" y="511"/>
      <point x="158" y="511" type="curve" smooth="yes"/>
      <point x="107" y="511" type="line" smooth="yes"/>
      <point x="107" y="511"/>
      <point x="58" y="188"/>
      <point x="58" y="142" type="curve" smooth="yes"/>
      <point x="58" y="37"/>
      <point x="126" y="-10"/>
      <point x="221" y="-10" type="curve" smooth="yes"/>
      <point x="288" y="-10"/>
      <point x="355" y="22"/>
      <point x="398" y="76" type="curve"/>
    </contour>
    <contour>
      <point x="339" y="575" type="line"/>
      <point x="470" y="717" type="line"/>
      <point x="471" y="720" type="line"/>
      <point x="406" y="720" type="line"/>
      <point x="289" y="575" type="line"/>
    </contour>
  </outline>
</glyph>
<glyph name="dcroat" format="1">
  <advance width="612"/>
  <unicode hex="0111"/>
  <outline>
    <contour>
      <point x="627" y="623" type="line"/>
      <point x="633" y="666" type="line"/>
      <point x="251" y="666" type="line"/>
      <point x="245" y="623" type="line"/>
    </contour>
    <component base="d"/>
  </outline>
</glyph>
<glyph name="dotlessi" format="1">
  <advance width="261"/>
  <unicode hex="0131"/>
  <outline>
    <contour>
      <point x="94" y="0" type="line"/>
      <point x="165" y="511" type="line"/>
      <point x="114" y="511" type="line"/>
      <point x="43" y="0" type="line"/>
    </contour>
    <contour>
      <point x="92" y="10" type="move" name="ogonek"/>
    </contour>
    <contour>
      <point x="140" y="511" type="move" name="top"/>
    </contour>
  </outline>
</glyph>
<glyph name="Zcaron" format="1">
  <advance width="595"/>
  <unicode hex="017D"/>
  <outline>
    <contour>
      <point x="494" y="0" type="line"/>
      <point x="501" y="48" type="line"/>
      <point x="79" y="48" type="line"/>
      <point x="579" y="662" type="line"/>
      <point x="583" y="686" type="line"/>
      <point x="112" y="686" type="line"/>
      <point x="105" y="638" type="line"/>
      <point x="494" y="638" type="line"/>
      <point x="-5" y="25" type="line"/>
      <point x="-9" y="0" type="line"/>
    </contour>
    <contour>
      <point x="316" y="750" type="line"/>
      <point x="374" y="750" type="line"/>
      <point x="529" y="895" type="line"/>
      <point x="469" y="895" type="line"/>
      <point x="352" y="798" type="line"/>
      <point x="263" y="895" type="line"/>
      <point x="203" y="895" type="line"/>
    </contour>
  </outline>
</glyph>
<glyph name="ring" format="1">
  <advance width="340"/>
  <unicode hex="02DA"/>
  <outline>
    <contour>
      <point x="275" y="709"/>
      <point x="238" y="746"/>
      <point x="188" y="746" type="curve" smooth="yes"/>
      <point x="128" y="746"/>
      <point x="71" y="698"/>
      <point x="71" y="632" type="curve" smooth="yes"/>
      <point x="71" y="582"/>
      <point x="108" y="545"/>
      <point x="159" y="545" type="curve" smooth="yes"/>
      <point x="223" y="545"/>
      <point x="275" y="597"/>
      <point x="275" y="660" type="curve" smooth="yes"/>
    </contour>
    <contour>
      <point x="132" y="581"/>
      <point x="107" y="604"/>
      <point x="107" y="636" type="curve" smooth="yes"/>
      <point x="107" y="676"/>
      <point x="144" y="710"/>
      <point x="183" y="710" type="curve" smooth="yes"/>
      <point x="214" y="710"/>
      <point x="239" y="687"/>
      <point x="239" y="655" type="curve" smooth="yes"/>
      <point x="239" y="614"/>
      <point x="203" y="581"/>
      <point x="164" y="581" type="curve" smooth="yes"/>
    </contour>
    <contour>
      <point x="154" y="511" type="move" name="_top"/>
    </contour>
  </outline>
</glyph>
<glyph name="quotedblbase" format="1">
  <advance width="379"/>
  <unicode hex="201E"/>
  <outline>
    <contour>
      <point x="58" y="-101" type="line"/>
      <point x="103" y="11" type="line"/>
      <point x="111" y="69" type="line"/>
      <point x="46" y="69" type="line"/>
      <point x="37" y="0" type="line"/>
      <point x="61" y="0" type="line"/>
      <point x="61" y="0"/>
      <point x="25" y="-101"/>
      <point x="24" y="-101" type="curve"/>
    </contour>
    <contour>
      <point x="157" y="-101" type="line"/>
      <point x="202" y="11" type="line"/>
      <point x="210" y="69" type="line"/>
      <point x="145" y="69" type="line"/>
      <point x="136" y="0" type="line"/>
      <point x="160" y="0" type="line"/>
      <point x="160" y="0"/>
      <point x="124" y="-101"/>
      <point x="123" y="-101" type="curve"/>
    </contour>
  </outline>
</glyph>
<glyph name="fraction" format="1">
  <advance width="479"/>
  <unicode hex="2044"/>
  <outline>
    <contour>
      <point x="524" y="686" type="line"/>
      <point x="480" y="686" type="line"/>
      <point x="-36" y="0" type="line"/>
      <point x="11" y="0" type="line"/>
    </contour>
  </outline>
</glyph>
<glyph name="uni2113" format="1">
  <advance width="470"/>
  <unicode hex="2113"/>
  <outline>
    <contour>
      <point x="204" y="510" type="line" smooth="yes"/>
      <point x="217" y="606"/>
      <point x="251" y="655"/>
      <point x="313" y="655" type="curve" smooth="yes"/>
      <point x="360" y="655"/>
      <point x="391" y="626"/>
      <point x="391" y="548" type="curve" smooth="yes"/>
      <point x="391" y="446"/>
      <point x="338" y="275"/>
      <point x="151" y="275" type="curve"/>
      <point x="145" y="230" type="line"/>
      <point x="373" y="230"/>
      <point x="441" y="433"/>
      <point x="441" y="550" type="curve" smooth="yes"/>
      <point x="441" y="648"/>
      <point x="394" y="700"/>
      <point x="312" y="700" type="curve" smooth="yes"/>
      <point x="216" y="700"/>
      <point x="169" y="628"/>
      <point x="153" y="512" type="curve" smooth="yes"/>
      <point x="146" y="462" type="line"/>
      <point x="197" y="460" type="line"/>
    </contour>
    <contour>
      <point x="32" y="230" type="line"/>
      <point x="130" y="230" type="line"/>
      <point x="136" y="275" type="line"/>
      <point x="38" y="275" type="line"/>
    </contour>
    <contour>
      <point x="309" y="52" type="line"/>
      <point x="284" y="45"/>
      <point x="245" y="36"/>
      <point x="214" y="36" type="curve" smooth="yes"/>
      <point x="184" y="36"/>
      <point x="149" y="45"/>
      <point x="149" y="103" type="curve" smooth="yes"/>
      <point x="149" y="113"/>
      <point x="150" y="122"/>
      <point x="153" y="147" type="curve" smooth="yes"/>
      <point x="204" y="510" type="line"/>
      <point x="153" y="512" type="line"/>
      <point x="101" y="140" type="line" smooth="yes"/>
      <point x="98" y="120"/>
      <point x="98" y="109"/>
      <point x="98" y="99" type="curve" smooth="yes"/>
      <point x="98" y="24"/>
      <point x="144" y="-10"/>
      <point x="212" y="-10" type="curve" smooth="yes"/>
      <point x="243" y="-10"/>
      <point x="279" y="-3"/>
      <point x="302" y="7" type="curve"/>
    </contour>
  </outline>
</glyph>
<glyph name="estimated" format="1">
  <advance width="780"/>
  <unicode hex="212E"/>
  <outline>
    <contour>
      <point x="138" y="150" type="line"/>
      <point x="199" y="70" type="line"/>
      <point x="199" y="599" type="line"/>
      <point x="138" y="519" type="line"/>
    </contour>
    <contour>
      <point x="608" y="599" type="line"/>
      <point x="608" y="337" type="line"/>
      <point x="672" y="337" type="line"/>
      <point x="672" y="519" type="line"/>
    </contour>
    <contour>
      <point x="127" y="316" type="line"/>
      <point x="687" y="316" type="line"/>
      <point x="687" y="364" type="line"/>
      <point x="127" y="364" type="line"/>
    </contour>
    <contour>
      <point x="709" y="316" type="line"/>
      <point x="709" y="368" type="line" smooth="yes"/>
      <point x="709" y="573"/>
      <point x="587" y="696"/>
      <point x="405" y="696" type="curve" smooth="yes"/>
      <point x="223" y="696"/>
      <point x="101" y="573"/>
      <point x="101" y="367" type="curve" smooth="yes"/>
      <point x="101" y="319" type="line" smooth="yes"/>
      <point x="101" y="113"/>
      <point x="228" y="-10"/>
      <point x="413" y="-10" type="curve" smooth="yes"/>
      <point x="520" y="-10"/>
      <point x="605" y="31"/>
      <point x="660" y="105" type="curve"/>
      <point x="622" y="135" type="line"/>
      <point x="576" y="69"/>
      <point x="504" y="35"/>
      <point x="415" y="35" type="curve" smooth="yes"/>
      <point x="261" y="35"/>
      <point x="151" y="137"/>
      <point x="151" y="319" type="curve" smooth="yes"/>
      <point x="151" y="367" type="line" smooth="yes"/>
      <point x="151" y="549"/>
      <point x="254" y="651"/>
      <point x="406" y="651" type="curve" smooth="yes"/>
      <point x="558" y="651"/>
      <point x="659" y="549"/>
      <point x="659" y="366" type="curve" smooth="yes"/>
      <point x="659" y="316" type="line"/>
    </contour>
  </outline>
</glyph>
<glyph name="product" format="1">
  <advance width="749"/>
  <unicode hex="220F"/>
  <outline>
    <contour>
      <point x="711" y="647" type="line"/>
      <point x="718" y="695" type="line"/>
      <point x="77" y="695" type="line"/>
      <point x="70" y="647" type="line"/>
      <point x="184" y="647" type="line"/>
      <point x="80" y="-96" type="line"/>
      <point x="136" y="-96" type="line"/>
      <point x="240" y="647" type="line"/>
      <point x="541" y="647" type="line"/>
      <point x="437" y="-96" type="line"/>
      <point x="493" y="-96" type="line"/>
      <point x="597" y="647" type="line"/>
    </contour>
  </outline>
</glyph>
<glyph name="minus" format="1">
  <advance width="615"/>
  <unicode hex="2212"/>
  <outline>
    <contour>
      <point x="41" y="226" type="line"/>
      <point x="552" y="226" type="line"/>
      <point x="561" y="283" type="line"/>
      <point x="50" y="283" type="line"/>
    </contour>
  </outline>
</glyph>
<glyph name="radical" format="1">
  <advance width="565"/>
  <unicode hex="221A"/>
  <outline>
    <contour>
      <point x="579" y="805" type="line"/>
      <point x="528" y="805" type="line"/>
      <point x="202" y="-67" type="line"/>
      <point x="202" y="-50"/>
      <point x="199" y="-27"/>
      <point x="196" y="0" type="curve"/>
      <point x="117" y="371" type="line"/>
      <point x="-20" y="321" type="line"/>
      <point x="-12" y="279" type="line"/>
      <point x="66" y="307" type="line"/>
      <point x="164" y="-146" type="line"/>
      <point x="225" y="-146" type="line"/>
    </contour>
  </outline>
</glyph>
<glyph name="approxequal" format="1">
  <advance width="615"/>
  <unicode hex="2248"/>
  <outline>
    <contour>
      <point x="606" y="423" type="line"/>
      <point x="606" y="423"/>
      <point x="527" y="345"/>
      <point x="432" y="345" type="curve" smooth="yes"/>
      <point x="344" y="345"/>
      <point x="289" y="411"/>
      <point x="204" y="411" type="curve" smooth="yes"/>
      <point x="109" y="411"/>
      <point x="30" y="333"/>
      <point x="30" y="333" type="curve"/>
      <point x="21" y="273" type="line"/>
      <point x="21" y="273"/>
      <point x="100" y="351"/>
      <point x="195" y="351" type="curve" smooth="yes"/>
      <point x="283" y="351"/>
      <point x="339" y="285"/>
      <point x="424" y="285" type="curve" smooth="yes"/>
      <point x="519" y="285"/>
      <point x="598" y="363"/>
      <point x="598" y="363" type="curve"/>
    </contour>
    <contour>
      <point x="578" y="221" type="line"/>
      <point x="578" y="221"/>
      <point x="499" y="143"/>
      <point x="404" y="143" type="curve" smooth="yes"/>
      <point x="316" y="143"/>
      <point x="260" y="209"/>
      <point x="175" y="209" type="curve" smooth="yes"/>
      <point x="80" y="209"/>
      <point x="1" y="131"/>
      <point x="1" y="131" type="curve"/>
      <point x="-7" y="71" type="line"/>
      <point x="-7" y="71"/>
      <point x="72" y="149"/>
      <point x="167" y="149" type="curve" smooth="yes"/>
      <point x="255" y="149"/>
      <point x="310" y="83"/>
      <point x="395" y="83" type="curve" smooth="yes"/>
      <point x="490" y="83"/>
      <point x="569" y="161"/>
      <point x="569" y="161" type="curve"/>
    </contour>
  </outline>
</glyph>
<glyph name="uniFB02" format="1">
  <advance width="562"/>
  <unicode hex="FB02"/>
  <outline>
    <contour>
      <point x="52" y="-73" type="line" smooth="yes"/>
      <point x="44" y="-132"/>
      <point x="14" y="-140"/>
      <point x="-14" y="-140" type="curve" smooth="yes"/>
      <point x="-29" y="-140"/>
      <point x="-59" y="-131"/>
      <point x="-74" y="-124" type="curve"/>
      <point x="-80" y="-169" type="line"/>
      <point x="-65" y="-179"/>
      <point x="-40" y="-186"/>
      <point x="-15" y="-186" type="curve" smooth="yes"/>
      <point x="51" y="-186"/>
      <point x="92" y="-152"/>
      <point x="103" y="-75" type="curve" smooth="yes"/>
      <point x="179" y="465" type="line"/>
      <point x="298" y="465" type="line"/>
      <point x="304" y="511" type="line"/>
      <point x="185" y="511" type="line"/>
      <point x="200" y="615" type="line" smooth="yes"/>
      <point x="208" y="674"/>
      <point x="238" y="682"/>
      <point x="266" y="682" type="curve" smooth="yes"/>
      <point x="281" y="682"/>
      <point x="311" y="673"/>
      <point x="326" y="666" type="curve"/>
      <point x="332" y="711" type="line"/>
      <point x="317" y="721"/>
      <point x="292" y="728"/>
      <point x="267" y="728" type="curve" smooth="yes"/>
      <point x="208" y="728"/>
      <point x="160" y="694"/>
      <point x="149" y="617" type="curve" smooth="yes"/>
      <point x="134" y="511" type="line"/>
      <point x="78" y="511" type="line"/>
      <point x="72" y="465" type="line"/>
      <point x="128" y="465" type="line"/>
    </contour>
    <contour>
      <point x="408" y="0" type="line"/>
      <point x="509" y="720" type="line"/>
      <point x="458" y="720" type="line"/>
      <point x="357" y="0" type="line"/>
    </contour>
  </outline>
</glyph>
